<svg xmlns="http://www.w3.org/2000/svg" width="512" height="512" viewBox="0 0 512 512">
  <rect width="512" height="512" rx="112" fill="#113d82"/>
  <rect x="34" y="34" width="444" height="444" rx="82" fill="none" stroke="#ffffff" stroke-opacity=".14" stroke-width="8"/>
  <path d="M128 151h85c93 0 151 39 151 105s-58 105-151 105h-85V151Zm80 155c50 0 78-17 78-50s-28-50-78-50h-5v100h5Z" fill="#ffffff"/>
  <path d="m306 151 38 60 39-60h68l-70 104 73 106h-70l-41-62-41 62h-68l72-106-69-104h69Z" fill="#ffffff"/>
</svg>
